<svg width="20" height="20" viewBox="0 0 20 20" fill="none" xmlns="http://www.w3.org/2000/svg">
<g clip-path="url(#clip0)">
<path d="M0 6.03516V18.331C0 19.2518 0.74543 19.9977 1.66668 19.9977H18.3334C19.2538 19.9977 20 19.2518 20 18.331V6.03516H0Z" fill="#F2F2F2"/>
<path d="M4.7688 9.42383H7.71173V16.6926H6.15255V10.8072H4.7688V9.42383Z" fill="#40596B"/>
<path d="M12.2252 16.7759C11.2202 16.7759 10.4681 16.4347 9.96848 15.7517C9.46973 15.0688 9.21973 14.1572 9.21973 13.0167C9.21973 11.8772 9.46973 10.9642 9.96848 10.2817C10.468 9.59968 11.2202 9.25757 12.2252 9.25757C13.2302 9.25757 13.9831 9.59964 14.4818 10.2817C14.9814 10.9647 15.2306 11.8772 15.2306 13.0167C15.2306 14.1572 14.9814 15.0692 14.4818 15.7517C13.9831 16.4342 13.2302 16.7759 12.2252 16.7759ZM11.1543 11.2642C10.9256 11.7076 10.811 12.2938 10.811 13.0217C10.811 13.7488 10.9256 14.3355 11.1543 14.7792C11.3831 15.223 11.7402 15.4451 12.2252 15.4451C12.7102 15.4451 13.0672 15.223 13.2968 14.7792C13.5256 14.3359 13.6393 13.7488 13.6393 13.0217C13.6393 12.2938 13.5256 11.708 13.2968 11.2642C13.0673 10.8213 12.7102 10.598 12.2252 10.598C11.7402 10.598 11.3827 10.8213 11.1543 11.2642Z" fill="#40596B"/>
<path d="M18.3333 1.18823H1.66668C0.74625 1.18823 0 1.93448 0 2.85491V6.03784H20V2.85491C20 1.93448 19.2537 1.18823 18.3333 1.18823Z" fill="#FF7058"/>
<path d="M17.3521 3.61228C17.3521 4.26353 16.8246 4.79146 16.1729 4.79146C15.5217 4.79146 14.9946 4.26353 14.9946 3.61228C14.9946 2.96104 15.5221 2.43311 16.1729 2.43311C16.8246 2.43311 17.3521 2.96104 17.3521 3.61228Z" fill="white"/>
<path d="M5.00667 3.61228C5.00667 4.26353 4.47835 4.79146 3.82749 4.79146C3.17663 4.79146 2.64917 4.26353 2.64917 3.61228C2.64917 2.96104 3.17667 2.43311 3.82749 2.43311C4.47831 2.43311 5.00667 2.96104 5.00667 3.61228Z" fill="white"/>
<path d="M16.1851 0.00219727C15.7521 0.00219727 15.4005 0.353018 15.4005 0.786768L15.3884 3.33009C15.3884 3.76341 15.7401 4.11466 16.1739 4.11466C16.6068 4.11466 16.9584 3.76341 16.9584 3.33009L16.9705 0.786768C16.9705 0.353018 16.6188 0.00219727 16.1851 0.00219727Z" fill="#40596B"/>
<path d="M3.83961 0.00219727C3.40668 0.00219727 3.05504 0.353018 3.05504 0.786767L3.04297 3.3297C3.04297 3.76302 3.39465 4.11427 3.82754 4.11427C4.26129 4.11427 4.61211 3.76302 4.61211 3.3297L4.62418 0.786377C4.62422 0.353018 4.27336 0.00219727 3.83961 0.00219727Z" fill="#40596B"/>
</g>
<defs>
<clipPath id="clip0">
<rect width="20" height="20" fill="white"/>
</clipPath>
</defs>
</svg>
